<svg width="40" height="51" viewBox="0 0 40 51" fill="none" xmlns="http://www.w3.org/2000/svg">
<circle cx="20" cy="20" r="20" fill="#FB538B"/>
<circle cx="20" cy="20" r="19" fill="#FFD44A"/>
<path d="M20.9756 9.4438C20.9756 9.4438 20.252 9.7434 19.8311 9.65327C19.4101 9.56314 18.9887 9.59335 18.4776 9.80382C17.966 10.0143 17.4549 9.89395 17.2143 9.80382C16.9736 9.71369 16.0113 9.55659 15.7706 9.92064C15.53 10.2847 15.53 10.616 15.9811 10.7358C16.4323 10.8562 16.4625 11.3073 16.1015 11.3073C15.7404 11.3073 14.6876 11.2474 14.2666 11.4579C13.8457 11.6684 13.3341 12.2399 13.755 12.691C14.176 13.1422 14.5974 12.8416 14.5974 13.1422C14.5974 13.4428 14.4469 13.4428 13.966 13.5933C13.4852 13.7439 13.0033 14.1648 13.1236 14.5259C13.244 14.8869 13.755 14.7363 13.7853 14.9468C13.8155 15.1573 13.3341 15.4282 13.3341 15.4282C13.3341 15.4282 12.5823 16.2706 13.3341 16.5108C14.0859 16.7509 14.6574 15.8189 14.7777 15.5782C14.898 15.3375 15.1085 14.9765 15.2289 15.2474C15.3492 15.5183 15.319 15.759 15.9207 15.6986C16.5224 15.6386 16.5224 14.2248 16.4323 13.6835C16.3421 13.1422 16.4625 12.8516 16.673 12.9972C16.8834 13.1422 16.6428 13.8944 17.2445 13.9242C17.8462 13.9544 17.9962 13.2625 18.0264 12.2998C18.0566 11.337 18.4474 11.6981 18.4474 11.6981C18.4474 11.6981 18.4675 11.9589 18.8482 11.9186C19.2294 11.8783 19.4997 11.1865 19.6805 10.7656C19.8608 10.3446 20.8265 9.77311 20.9756 9.74289C21.1246 9.71268 20.9756 9.4438 20.9756 9.4438Z" fill="url(#paint0_linear_1240_285)"/>
<path d="M21.894 9.77371C21.894 9.77371 22.5078 10.2249 22.177 10.9469C21.8462 11.669 21.5607 13.1231 22.2747 12.9973C22.9887 12.8719 22.8386 11.9696 23.0491 12.24C23.2596 12.5104 22.7485 13.383 23.0491 13.6836C23.3497 13.9842 23.7409 13.9545 23.9816 13.4429C24.2223 12.9313 24.6734 13.0819 24.613 13.3528C24.5526 13.6237 23.9323 14.7062 24.6186 15.1574C25.3049 15.6085 25.6659 14.8266 25.8462 14.526C26.0264 14.2254 26.3577 14.4056 26.3577 14.5859C26.3577 14.7661 26.1775 15.4283 26.3577 15.6987C26.538 15.9696 26.899 16.0698 27.2298 15.9293C27.5606 15.7888 27.6211 15.037 27.4705 14.4051C27.32 13.7737 27.7112 13.9238 27.9217 14.1644C28.1321 14.4051 28.7036 14.0743 28.403 13.5627C28.1024 13.0511 26.9594 12.5401 26.6583 12.5099C26.3577 12.4796 26.4177 12.1488 26.8688 12.179C27.32 12.2093 27.8315 12.2294 27.8315 11.9182C27.8315 11.607 27.8915 11.096 26.9594 11.036C26.0269 10.9761 24.9846 11.3366 25.1599 10.8256C25.3351 10.314 25.967 10.5849 26.0873 10.2239C26.2077 9.86284 26.0571 9.44189 24.8844 9.7727C23.7112 10.1035 24.253 10.0733 23.4106 9.95297C22.5682 9.83262 21.8522 9.56475 21.8945 9.4429C21.9368 9.32104 21.894 9.77371 21.894 9.77371Z" fill="url(#paint1_linear_1240_285)"/>
<path d="M18.6579 15.9297C18.6579 15.9297 19.0728 14.4377 19.53 12.4408C20.2918 9.11196 22.4177 8.22979 23.2198 7.90904L23.5808 9.31287C23.5808 9.31287 21.0053 9.73129 20.4529 11.8597C19.7711 14.4866 20.1921 15.0379 20.1921 15.0379C20.1921 15.0379 20.603 15.5495 20.6432 15.7897C20.6835 16.0299 20.3724 15.9302 20.3724 15.9302H19.6503H18.6579V15.9297Z" fill="url(#paint2_linear_1240_285)"/>
<path d="M24.4877 23.7046L23.7657 24.0656L23.1639 23.6145L22.4122 23.8552L21.7083 23.4639L21.0889 23.6442L20.3971 23.3733L19.7355 23.5838L19.0134 23.3431L18.3216 23.7343L17.6599 23.5541L17.0285 23.9151L16.1861 23.6145L15.5547 24.0656L14.7425 23.5843L14.4595 23.7434C14.5008 24.9659 14.6806 27.7791 15.4701 28.9634C16.4928 30.4976 17.6957 31.0389 18.6584 31.2796C19.6212 31.5203 20.1927 32.6029 20.1927 32.6029C20.1927 32.6029 20.7641 31.4297 21.6665 31.189C22.5688 30.9483 24.2234 30.2262 24.7943 28.6623C25.172 27.6286 25.3397 25.335 25.4097 23.8975L25.1196 24.0651L24.4877 23.7046Z" fill="url(#paint3_radial_1240_285)"/>
<path opacity="0.6" d="M25.2233 23.0692C25.2233 23.0692 19.0068 22.8375 18.6579 22.8375L14.459 23.0838V24.0248L14.7419 23.8657L15.5541 24.3471L16.1856 23.8959L17.0279 24.1965L17.6594 23.8355L18.321 24.0158L19.0128 23.6245L19.7349 23.8652L20.3965 23.6548L21.0884 23.9257L21.7077 23.7454L22.4116 24.1366L23.1634 23.8959L23.7651 24.3471L24.4871 23.9861L25.1186 24.3471L25.4086 24.1794C25.4091 24.1789 25.464 23.0389 25.2233 23.0692Z" fill="#914720"/>
<path d="M26.8935 19.7343L26.4424 18.832C26.4424 18.832 26.2918 18.2605 26.2017 17.9599C26.2017 17.9599 25.8709 17.539 25.5703 17.4186C25.5703 17.4186 25.4001 16.8773 24.9741 16.5465C24.9741 16.5465 24.3674 16.3058 24.1267 16.3361C24.1267 16.3361 23.7455 15.9151 23.3945 15.8849C23.3945 15.8849 22.893 15.8849 22.6529 15.975C22.6529 15.975 22.0572 15.6744 21.7082 15.6744L20.9333 15.825L20.5471 15.6744L19.7349 15.825L18.9832 15.6744L18.171 15.825H17.3286L16.6065 16.1065L15.7944 16.3064L15.2828 16.9081C15.2828 16.9081 14.4107 17.2389 14.2299 17.4493V17.9609C14.2299 17.9609 13.5683 18.1115 13.3875 18.5324C13.2073 18.9534 13.3875 19.4347 13.3875 19.4347C13.3875 19.4347 13.0869 20.0964 13.1166 20.3975C13.1468 20.6981 13.3573 21.1492 13.3573 21.1492L13.2974 22.0213L13.598 22.6528L13.7486 23.4347L14.2601 23.8557L14.4585 23.7439L14.7415 23.5848L15.5537 24.0661L16.1851 23.615L17.0275 23.9156L17.6589 23.5546L18.3205 23.7348L19.0124 23.3436L19.7344 23.5843L20.3961 23.3738L21.0879 23.6447L21.7072 23.4644L22.4112 23.8557L23.1629 23.615L23.7646 24.0661L24.4867 23.7051L25.1181 24.0661L25.4081 23.8985L25.6896 23.7353L26.2309 23.254C26.2309 23.254 26.4716 22.9534 26.6221 22.6225V21.9911C26.6221 21.9911 26.8628 21.5999 26.893 21.3597L26.6221 20.4272C26.6231 20.4262 26.8336 20.1558 26.8935 19.7343Z" fill="url(#paint4_radial_1240_285)"/>
<path d="M16.3265 25.4953C16.4935 25.2367 16.4582 24.9168 16.2478 24.7809C16.0373 24.645 15.7312 24.7444 15.5642 25.003C15.3972 25.2617 15.4325 25.5815 15.643 25.7174C15.8535 25.8534 16.1595 25.7539 16.3265 25.4953Z" fill="#FFEDD8"/>
<path d="M16.1453 26.4254C16.2329 26.2896 16.2144 26.1217 16.1039 26.0504C15.9934 25.979 15.8328 26.0312 15.7451 26.1669C15.6575 26.3027 15.676 26.4706 15.7865 26.5419C15.897 26.6133 16.0576 26.5611 16.1453 26.4254Z" fill="#FFEDD8"/>
<path d="M15.6267 18.7187C15.8211 18.7187 15.9786 18.5612 15.9786 18.3668C15.9786 18.1724 15.8211 18.0148 15.6267 18.0148C15.4323 18.0148 15.2747 18.1724 15.2747 18.3668C15.2747 18.5612 15.4323 18.7187 15.6267 18.7187Z" fill="#FEC662"/>
<path d="M16.3749 18.7586C16.5128 18.7586 16.6246 18.6467 16.6246 18.5088C16.6246 18.3709 16.5128 18.2591 16.3749 18.2591C16.2369 18.2591 16.1251 18.3709 16.1251 18.5088C16.1251 18.6467 16.2369 18.7586 16.3749 18.7586Z" fill="#FEC662"/>
<path d="M22.2727 9.00987C22.3742 9.00987 22.4564 8.92759 22.4564 8.82609C22.4564 8.72459 22.3742 8.6423 22.2727 8.6423C22.1712 8.6423 22.0889 8.72459 22.0889 8.82609C22.0889 8.92759 22.1712 9.00987 22.2727 9.00987Z" fill="#D3E59F"/>
<path d="M21.8421 9.2702C21.9141 9.2702 21.9725 9.21182 21.9725 9.13979C21.9725 9.06777 21.9141 9.00938 21.8421 9.00938C21.7701 9.00938 21.7117 9.06777 21.7117 9.13979C21.7117 9.21182 21.7701 9.2702 21.8421 9.2702Z" fill="#D3E59F"/>
<path d="M14.6412 19.4321C14.7419 19.4321 14.8235 19.3505 14.8235 19.2498C14.8235 19.1492 14.7419 19.0676 14.6412 19.0676C14.5406 19.0676 14.459 19.1492 14.459 19.2498C14.459 19.3505 14.5406 19.4321 14.6412 19.4321Z" fill="#FEC662"/>
<path d="M18.6578 18.914C18.7438 18.914 18.8134 18.8443 18.8134 18.7584C18.8134 18.6725 18.7438 18.6028 18.6578 18.6028C18.5719 18.6028 18.5023 18.6725 18.5023 18.7584C18.5023 18.8443 18.5719 18.914 18.6578 18.914Z" fill="#FEC662"/>
<path d="M25.1599 18.6627C25.2169 18.6627 25.2631 18.6165 25.2631 18.5595C25.2631 18.5025 25.2169 18.4562 25.1599 18.4562C25.1029 18.4562 25.0566 18.5025 25.0566 18.5595C25.0566 18.6165 25.1029 18.6627 25.1599 18.6627Z" fill="#FBB263"/>
<path d="M25.6186 18.9729C25.6603 18.9729 25.6941 18.9391 25.6941 18.8974C25.6941 18.8557 25.6603 18.8219 25.6186 18.8219C25.5769 18.8219 25.5431 18.8557 25.5431 18.8974C25.5431 18.9391 25.5769 18.9729 25.6186 18.9729Z" fill="#FBB263"/>
<path d="M16.3769 12.1553C16.3059 12.1482 16.2354 12.1407 16.1644 12.1361C16.0939 12.1301 16.0229 12.1251 15.9524 12.122C15.8109 12.115 15.6694 12.1099 15.5279 12.1104C15.3864 12.1089 15.2449 12.1135 15.104 12.121C15.033 12.1235 14.9625 12.1296 14.892 12.1361C14.821 12.1397 14.751 12.1512 14.6795 12.1558C14.818 12.122 14.9584 12.0964 15.1004 12.0823C15.1714 12.0722 15.2424 12.0702 15.3139 12.0646C15.3854 12.0626 15.4564 12.0596 15.5279 12.0601C15.6704 12.0611 15.8134 12.0676 15.9549 12.0838C16.0974 12.0994 16.2389 12.1205 16.3769 12.1553Z" fill="url(#paint5_linear_1240_285)"/>
<path d="M15.3346 13.4332C15.3936 13.5334 15.4429 13.6386 15.4892 13.7454C15.5361 13.8521 15.5758 13.9614 15.6121 14.0716C15.6468 14.1829 15.6775 14.2952 15.6997 14.41C15.7208 14.5248 15.7359 14.6406 15.7365 14.7569C15.7239 14.7 15.7163 14.6426 15.7017 14.5867C15.6911 14.5303 15.6755 14.4745 15.6619 14.4186C15.6312 14.3073 15.6 14.197 15.5642 14.0872C15.5295 13.9775 15.4912 13.8687 15.4535 13.7595C15.4348 13.7051 15.4147 13.6507 15.3946 13.5963C15.3754 13.5419 15.3538 13.4881 15.3346 13.4332Z" fill="url(#paint6_linear_1240_285)"/>
<path d="M17.4303 11.3521C17.4408 11.5001 17.4439 11.6487 17.4449 11.7972C17.4464 11.9458 17.4434 12.0938 17.4383 12.2423C17.4318 12.3909 17.4242 12.5389 17.4106 12.6869C17.397 12.835 17.3804 12.9825 17.3542 13.129L17.3885 12.2408L17.4066 11.7967L17.4167 11.5747C17.4217 11.5006 17.4247 11.4266 17.4303 11.3521Z" fill="url(#paint7_linear_1240_285)"/>
<path d="M20.6709 9.82489C20.317 9.9553 19.9685 10.0988 19.6231 10.2494C19.2772 10.3994 18.9358 10.5585 18.5994 10.7277C18.2631 10.8969 17.9313 11.0756 17.6095 11.271C17.4474 11.3662 17.2913 11.4714 17.1342 11.5746C16.9821 11.6844 16.8265 11.7911 16.6835 11.912C16.396 12.1527 16.1367 12.4266 15.8975 12.7166C15.6579 13.0067 15.4388 13.3133 15.2294 13.626C15.0199 13.9392 14.824 14.2609 14.6337 14.5862L14.3487 15.0746C14.3014 15.1562 14.2535 15.2373 14.2042 15.3178C14.1795 15.3581 14.1543 15.3979 14.1277 15.4372C14.1 15.4749 14.0748 15.5157 14.038 15.5459C14.0738 15.5152 14.0984 15.4739 14.1251 15.4351C14.1503 15.3954 14.175 15.3551 14.1986 15.3148C14.246 15.2332 14.2923 15.1512 14.3376 15.0686L14.612 14.5736C14.7983 14.2458 14.9907 13.9205 15.1966 13.6043C15.4016 13.2871 15.6226 12.9805 15.8618 12.6874C16.1015 12.3949 16.3608 12.1174 16.6513 11.8732C16.7968 11.7514 16.9534 11.6451 17.107 11.5349C17.2651 11.4316 17.4227 11.3264 17.5859 11.2317C17.9101 11.0379 18.2419 10.8571 18.5823 10.6935C18.9217 10.5278 19.2656 10.3727 19.6135 10.2272C19.9625 10.0837 20.3144 9.94775 20.6709 9.82489Z" fill="url(#paint8_linear_1240_285)"/>
<path d="M22.0838 9.86332C22.3557 10.0239 22.6241 10.1911 22.89 10.3618C23.1553 10.5335 23.4171 10.7102 23.6765 10.8915C24.1941 11.2546 24.6986 11.6372 25.1754 12.0536C25.4121 12.2636 25.6417 12.4832 25.8532 12.7188C25.9604 12.8356 26.0591 12.9605 26.1533 13.0884C26.2454 13.2178 26.3255 13.3573 26.3955 13.4983C26.541 13.7792 26.679 14.0642 26.7993 14.3568C26.8592 14.5033 26.9141 14.6518 26.9609 14.8029C27.0058 14.9539 27.0511 15.1075 27.0566 15.2661C27.047 15.108 26.9982 14.956 26.9494 14.8069C26.8985 14.6579 26.8406 14.5108 26.7767 14.3668C26.6518 14.0773 26.5103 13.7948 26.3612 13.5169C26.2882 13.3764 26.2092 13.2425 26.1175 13.1141C26.0239 12.9882 25.9257 12.8653 25.819 12.7495C25.608 12.5164 25.3784 12.2994 25.1417 12.0914C24.6694 11.6735 24.1654 11.2918 23.6538 10.9227C23.3975 10.7384 23.1382 10.5582 22.8759 10.3825C22.615 10.2052 22.3517 10.031 22.0838 9.86332Z" fill="url(#paint9_linear_1240_285)"/>
<path d="M23.7742 10.9839C23.7878 11.1531 23.7908 11.3223 23.7903 11.492C23.7903 11.6617 23.7833 11.8309 23.7707 12.0001C23.7571 12.1692 23.74 12.3379 23.7092 12.5051C23.679 12.6723 23.6423 12.8389 23.5808 12.997C23.5899 12.9557 23.5995 12.9145 23.6095 12.8737C23.6186 12.8324 23.6252 12.7906 23.6327 12.7493C23.6418 12.708 23.6468 12.6662 23.6533 12.6244C23.6599 12.5826 23.6664 12.5413 23.6705 12.4991C23.6921 12.3319 23.7072 12.1637 23.7198 11.996C23.7334 11.8279 23.742 11.6592 23.751 11.4905L23.7742 10.9839Z" fill="url(#paint10_linear_1240_285)"/>
<path d="M23.5047 10.7933C23.6432 10.7026 23.7867 10.6195 23.9322 10.54C24.0772 10.4599 24.2253 10.3854 24.3758 10.3154C24.5269 10.2469 24.68 10.1815 24.8386 10.1306C24.9176 10.1049 24.9982 10.0828 25.0803 10.0677C25.1613 10.0556 25.2499 10.043 25.3275 10.0762C25.2469 10.0546 25.1638 10.0722 25.0853 10.0919C25.0057 10.1115 24.9277 10.1377 24.8512 10.1674C24.6976 10.2263 24.5465 10.2918 24.397 10.3612C24.2469 10.4297 24.0989 10.5022 23.9503 10.5742L23.5047 10.7933Z" fill="url(#paint11_linear_1240_285)"/>
<path d="M24.9237 11.8704C25.1055 11.7999 25.2923 11.7425 25.4806 11.6901C25.6689 11.6387 25.8598 11.597 26.0526 11.5622C26.1493 11.5461 26.246 11.5335 26.3437 11.5234C26.4408 11.5134 26.539 11.5058 26.6372 11.5068C26.7354 11.5073 26.8336 11.5119 26.9308 11.527C27.0274 11.5441 27.1241 11.5688 27.2097 11.6161C27.1191 11.5793 27.0234 11.5602 26.9272 11.5516C26.8311 11.5416 26.7344 11.5416 26.6377 11.5461C26.4444 11.5542 26.252 11.5783 26.0612 11.6126C25.8693 11.6428 25.68 11.6851 25.4907 11.7284C25.396 11.75 25.3014 11.7732 25.2072 11.7974C25.112 11.8195 25.0184 11.8452 24.9237 11.8704Z" fill="url(#paint12_linear_1240_285)"/>
<path d="M25.8864 12.7892C25.8617 12.9483 25.825 13.1049 25.7847 13.261C25.7444 13.4171 25.6956 13.5706 25.6407 13.7222C25.5853 13.8733 25.5224 14.0228 25.4448 14.1648C25.3673 14.3058 25.2807 14.4463 25.1603 14.5545C25.185 14.5223 25.2092 14.4906 25.2344 14.4599L25.2988 14.3587C25.3391 14.2897 25.3784 14.2202 25.4111 14.1477C25.4796 14.0037 25.54 13.8556 25.5939 13.7056C25.6493 13.5555 25.6996 13.404 25.7485 13.2514C25.7731 13.1754 25.7963 13.0983 25.8189 13.0213C25.8421 12.9432 25.8638 12.8662 25.8864 12.7892Z" fill="url(#paint13_linear_1240_285)"/>
<path d="M26.3068 13.3707C26.4428 13.3596 26.5792 13.3581 26.7157 13.3601C26.8522 13.3616 26.9886 13.3707 27.1246 13.3833C27.2605 13.3974 27.396 13.417 27.5299 13.4482C27.6623 13.4795 27.7978 13.5202 27.9101 13.5998C27.8783 13.5867 27.8486 13.5706 27.8169 13.559C27.7847 13.5489 27.753 13.5374 27.7202 13.5293L27.622 13.5046L27.5223 13.486C27.3889 13.4643 27.255 13.4462 27.12 13.4331C26.9851 13.4195 26.8501 13.4095 26.7147 13.3984L26.3068 13.3707Z" fill="url(#paint14_linear_1240_285)"/>
<path d="M22.8723 10.4272C22.8381 10.5873 22.7988 10.746 22.76 10.9046C22.7212 11.0632 22.6794 11.2208 22.6392 11.3789L22.5138 11.8522C22.4921 11.9307 22.472 12.0098 22.4529 12.0889C22.4332 12.1679 22.4116 12.247 22.402 12.328C22.406 12.1639 22.4438 12.0033 22.476 11.8431C22.5098 11.683 22.5495 11.5244 22.5903 11.3663C22.6321 11.2082 22.6754 11.0506 22.7228 10.8945C22.7696 10.7374 22.8179 10.5813 22.8723 10.4272Z" fill="url(#paint15_linear_1240_285)"/>
<path d="M16.3769 10.0607C16.5234 10.1161 16.6669 10.179 16.8094 10.244C16.9519 10.3084 17.0924 10.3779 17.2313 10.4504C17.3698 10.5239 17.5073 10.5995 17.6392 10.6846C17.7052 10.7274 17.7706 10.7712 17.8331 10.8185C17.894 10.8673 17.9569 10.9177 18.0002 10.9841C17.9484 10.9257 17.8839 10.8809 17.8184 10.8386C17.7535 10.7958 17.6865 10.7561 17.6191 10.7178C17.4836 10.6412 17.3461 10.5672 17.2082 10.4947L16.7928 10.2782L16.5848 10.1705L16.3769 10.0607Z" fill="url(#paint16_linear_1240_285)"/>
<path d="M13.599 14.3628C13.6579 14.3548 13.7163 14.3477 13.7742 14.3382C13.8326 14.3301 13.891 14.3215 13.9489 14.311C14.0647 14.2903 14.1806 14.2702 14.2943 14.2435C14.4086 14.2173 14.5214 14.1871 14.6332 14.1513C14.6881 14.1317 14.7445 14.1141 14.7974 14.0894C14.8528 14.0693 14.9041 14.0406 14.958 14.0154C14.8633 14.0874 14.7566 14.1418 14.6463 14.1876C14.536 14.2329 14.4207 14.2651 14.3054 14.2928C14.1891 14.3185 14.0718 14.3382 13.954 14.3492C13.8361 14.3608 13.7173 14.3679 13.599 14.3628Z" fill="url(#paint17_linear_1240_285)"/>
<path d="M19.0435 10.5222C19.0546 10.7 19.0476 10.8777 19.0335 11.0545C19.0249 11.1431 19.0153 11.2312 18.9997 11.3188C18.9841 11.4064 18.966 11.495 18.9287 11.5766C18.9469 11.4895 18.9514 11.4014 18.9605 11.3138L18.9826 11.0499C18.9987 10.8742 19.0148 10.698 19.0435 10.5222Z" fill="url(#paint18_linear_1240_285)"/>
<mask id="mask0_1240_285" style="mask-type:alpha" maskUnits="userSpaceOnUse" x="0" y="0" width="40" height="40">
<circle cx="20" cy="20" r="20" fill="#FFD44A"/>
</mask>
<g mask="url(#mask0_1240_285)">
<path d="M27 23.7909C30 22.624 32.5114 21.8179 36 25C37.7189 26.5679 39.9373 27.3959 42 26.5M13 24.5C7.01474 24.8573 5.04412 20.84 4.5 19.5C3.97895 18.2168 3.31247 15.9293 1 14.5" stroke="white" stroke-width="1.28729" stroke-dasharray="1.93 1.93"/>
</g>
<rect x="18" y="39" width="4" height="12" fill="#FB538B"/>
<defs>
<linearGradient id="paint0_linear_1240_285" x1="18.2735" y1="9.65041" x2="13.3786" y2="16.0308" gradientUnits="userSpaceOnUse">
<stop offset="0.00721658" stop-color="#68B545"/>
<stop offset="1" stop-color="#B4D034"/>
</linearGradient>
<linearGradient id="paint1_linear_1240_285" x1="23.4671" y1="10.8755" x2="28.4339" y2="15.3092" gradientUnits="userSpaceOnUse">
<stop offset="0.00721658" stop-color="#68B545"/>
<stop offset="1" stop-color="#B4D034"/>
</linearGradient>
<linearGradient id="paint2_linear_1240_285" x1="19.5004" y1="14.6729" x2="23.564" y2="8.22504" gradientUnits="userSpaceOnUse">
<stop stop-color="#3F833E"/>
<stop offset="0.4262" stop-color="#68B545"/>
<stop offset="1" stop-color="#B4D034"/>
</linearGradient>
<radialGradient id="paint3_radial_1240_285" cx="0" cy="0" r="1" gradientUnits="userSpaceOnUse" gradientTransform="translate(16.8831 26.0809) scale(7.78491)">
<stop offset="0.0463" stop-color="#FFDDAB"/>
<stop offset="0.2057" stop-color="#F0A268"/>
<stop offset="0.237" stop-color="#F19B59"/>
<stop offset="0.2856" stop-color="#F19344"/>
<stop offset="0.3397" stop-color="#F18D34"/>
<stop offset="0.4014" stop-color="#F18928"/>
<stop offset="0.4775" stop-color="#F18723"/>
<stop offset="0.6101" stop-color="#F18621"/>
<stop offset="1" stop-color="#F05724"/>
</radialGradient>
<radialGradient id="paint4_radial_1240_285" cx="0" cy="0" r="1" gradientUnits="userSpaceOnUse" gradientTransform="translate(20.0048 19.8692) scale(7.05986 5.03297)">
<stop offset="0.00721658" stop-color="#FFC82F"/>
<stop offset="0.3691" stop-color="#D48E32"/>
<stop offset="0.8806" stop-color="#90402A"/>
</radialGradient>
<linearGradient id="paint5_linear_1240_285" x1="15.2774" y1="12.5538" x2="15.7822" y2="11.7529" gradientUnits="userSpaceOnUse">
<stop stop-color="#3F833E"/>
<stop offset="0.4262" stop-color="#68B545"/>
<stop offset="1" stop-color="#B4D034"/>
</linearGradient>
<linearGradient id="paint6_linear_1240_285" x1="15.2856" y1="14.4913" x2="15.7881" y2="13.6941" gradientUnits="userSpaceOnUse">
<stop stop-color="#3F833E"/>
<stop offset="0.4262" stop-color="#68B545"/>
<stop offset="1" stop-color="#B4D034"/>
</linearGradient>
<linearGradient id="paint7_linear_1240_285" x1="16.975" y1="12.9029" x2="17.8111" y2="11.5763" gradientUnits="userSpaceOnUse">
<stop stop-color="#3F833E"/>
<stop offset="0.4262" stop-color="#68B545"/>
<stop offset="1" stop-color="#B4D034"/>
</linearGradient>
<linearGradient id="paint8_linear_1240_285" x1="15.0927" y1="16.2214" x2="19.572" y2="9.11396" gradientUnits="userSpaceOnUse">
<stop stop-color="#3F833E"/>
<stop offset="0.4262" stop-color="#68B545"/>
<stop offset="1" stop-color="#B4D034"/>
</linearGradient>
<linearGradient id="paint9_linear_1240_285" x1="24.0525" y1="13.3869" x2="25.097" y2="11.7295" gradientUnits="userSpaceOnUse">
<stop stop-color="#3F833E"/>
<stop offset="0.4262" stop-color="#68B545"/>
<stop offset="1" stop-color="#B4D034"/>
</linearGradient>
<linearGradient id="paint10_linear_1240_285" x1="23.1926" y1="12.7597" x2="24.1663" y2="11.2146" gradientUnits="userSpaceOnUse">
<stop stop-color="#3F833E"/>
<stop offset="0.4262" stop-color="#68B545"/>
<stop offset="1" stop-color="#B4D034"/>
</linearGradient>
<linearGradient id="paint11_linear_1240_285" x1="23.9888" y1="11.1126" x2="24.85" y2="9.746" gradientUnits="userSpaceOnUse">
<stop stop-color="#3F833E"/>
<stop offset="0.4262" stop-color="#68B545"/>
<stop offset="1" stop-color="#B4D034"/>
</linearGradient>
<linearGradient id="paint12_linear_1240_285" x1="25.6759" y1="12.3629" x2="26.4624" y2="11.115" gradientUnits="userSpaceOnUse">
<stop stop-color="#3F833E"/>
<stop offset="0.4262" stop-color="#68B545"/>
<stop offset="1" stop-color="#B4D034"/>
</linearGradient>
<linearGradient id="paint13_linear_1240_285" x1="25.0354" y1="14.4817" x2="26.0455" y2="12.879" gradientUnits="userSpaceOnUse">
<stop stop-color="#3F833E"/>
<stop offset="0.4262" stop-color="#68B545"/>
<stop offset="1" stop-color="#B4D034"/>
</linearGradient>
<linearGradient id="paint14_linear_1240_285" x1="26.9207" y1="13.7826" x2="27.2978" y2="13.1842" gradientUnits="userSpaceOnUse">
<stop stop-color="#3F833E"/>
<stop offset="0.4262" stop-color="#68B545"/>
<stop offset="1" stop-color="#B4D034"/>
</linearGradient>
<linearGradient id="paint15_linear_1240_285" x1="22.1341" y1="12.175" x2="23.1362" y2="10.5851" gradientUnits="userSpaceOnUse">
<stop stop-color="#3F833E"/>
<stop offset="0.4262" stop-color="#68B545"/>
<stop offset="1" stop-color="#B4D034"/>
</linearGradient>
<linearGradient id="paint16_linear_1240_285" x1="17.1527" y1="10.5792" x2="17.247" y2="10.4296" gradientUnits="userSpaceOnUse">
<stop stop-color="#3F833E"/>
<stop offset="0.4262" stop-color="#68B545"/>
<stop offset="1" stop-color="#B4D034"/>
</linearGradient>
<linearGradient id="paint17_linear_1240_285" x1="13.9958" y1="14.6378" x2="14.5557" y2="13.7494" gradientUnits="userSpaceOnUse">
<stop stop-color="#3F833E"/>
<stop offset="0.4262" stop-color="#68B545"/>
<stop offset="1" stop-color="#B4D034"/>
</linearGradient>
<linearGradient id="paint18_linear_1240_285" x1="18.7292" y1="11.4572" x2="19.2469" y2="10.6357" gradientUnits="userSpaceOnUse">
<stop stop-color="#3F833E"/>
<stop offset="0.4262" stop-color="#68B545"/>
<stop offset="1" stop-color="#B4D034"/>
</linearGradient>
</defs>
</svg>
