<svg width="58" height="52" viewBox="0 0 58 52" fill="none" xmlns="http://www.w3.org/2000/svg">
<ellipse cx="29" cy="20.5966" rx="29" ry="20.5966" fill="#FB538B"/>
<ellipse cx="28.9999" cy="20.2669" rx="22.4091" ry="14.0057" fill="#FFD44A"/>
<path d="M29.396 9.44373C29.396 9.44373 28.6724 9.74332 28.2515 9.65319C27.8305 9.56306 27.4091 9.59327 26.898 9.80375C26.3864 10.0142 25.8754 9.89388 25.6347 9.80375C25.394 9.71361 24.4318 9.55651 24.1911 9.92056C23.9504 10.2846 23.9504 10.6159 24.4015 10.7358C24.8527 10.8561 24.8829 11.3073 24.5219 11.3073C24.1609 11.3073 23.108 11.2473 22.6871 11.4578C22.2661 11.6683 21.7545 12.2398 22.1755 12.6909C22.5964 13.1421 23.0179 12.8415 23.0179 13.1421C23.0179 13.4427 22.8673 13.4427 22.3864 13.5933C21.9056 13.7438 21.4237 14.1648 21.5441 14.5258C21.6644 14.8868 22.1755 14.7363 22.2057 14.9467C22.2359 15.1572 21.7545 15.4281 21.7545 15.4281C21.7545 15.4281 21.0028 16.2705 21.7545 16.5107C22.5063 16.7509 23.0778 15.8188 23.1981 15.5782C23.3185 15.3375 23.5289 14.9764 23.6493 15.2473C23.7696 15.5182 23.7394 15.7589 24.3411 15.6985C24.9428 15.6386 24.9428 14.2247 24.8527 13.6834C24.7626 13.1421 24.8829 12.8516 25.0934 12.9971C25.3039 13.1421 25.0632 13.8944 25.6649 13.9241C26.2666 13.9543 26.4166 13.2624 26.4469 12.2997C26.4771 11.337 26.8678 11.698 26.8678 11.698C26.8678 11.698 26.8879 11.9588 27.2686 11.9185C27.6498 11.8783 27.9202 11.1864 28.1009 10.7655C28.2812 10.3445 29.247 9.77303 29.396 9.74282C29.545 9.71261 29.396 9.44373 29.396 9.44373Z" fill="url(#paint0_linear_395_2)"/>
<path d="M30.3145 9.77364C30.3145 9.77364 30.9283 10.2248 30.5975 10.9468C30.2667 11.6689 29.9812 13.1231 30.6952 12.9972C31.4092 12.8718 31.2591 11.9695 31.4696 12.2399C31.6801 12.5103 31.169 13.3829 31.4696 13.6835C31.7702 13.9841 32.1615 13.9544 32.4021 13.4428C32.6428 12.9312 33.094 13.0818 33.0336 13.3527C32.9731 13.6236 32.3528 14.7062 33.0391 15.1573C33.7254 15.6085 34.0864 14.8265 34.2667 14.5259C34.4469 14.2253 34.7783 14.4055 34.7783 14.5858C34.7783 14.7661 34.598 15.4282 34.7783 15.6986C34.9585 15.9695 35.3196 16.0697 35.6504 15.9292C35.9812 15.7887 36.0416 15.037 35.891 14.405C35.7405 13.7736 36.1317 13.9237 36.3422 14.1644C36.5527 14.405 37.1242 14.0742 36.8236 13.5627C36.523 13.0511 35.38 12.54 35.0789 12.5098C34.7783 12.4796 34.8382 12.1488 35.2893 12.179C35.7405 12.2092 36.2521 12.2293 36.2521 11.9181C36.2521 11.607 36.312 11.0959 35.38 11.036C34.4474 10.9761 33.4052 11.3366 33.5804 10.8255C33.7556 10.3139 34.3875 10.5848 34.5079 10.2238C34.6282 9.86276 34.4777 9.44182 33.305 9.77263C32.1317 10.1034 32.6735 10.0732 31.8311 9.95289C30.9887 9.83255 30.2727 9.56467 30.315 9.44282C30.3573 9.32097 30.3145 9.77364 30.3145 9.77364Z" fill="url(#paint1_linear_395_2)"/>
<path d="M27.0781 15.9296C27.0781 15.9296 27.493 14.4376 27.9502 12.4406C28.7121 9.11185 30.8379 8.22968 31.64 7.90894L32.0011 9.31276C32.0011 9.31276 29.4256 9.73119 28.8732 11.8596C28.1914 14.4865 28.6124 15.0378 28.6124 15.0378C28.6124 15.0378 29.0232 15.5494 29.0635 15.7896C29.1038 16.0298 28.7926 15.9301 28.7926 15.9301H28.0706H27.0781V15.9296Z" fill="url(#paint2_linear_395_2)"/>
<path d="M32.9081 23.7045L32.186 24.0656L31.5843 23.6144L30.8325 23.8551L30.1286 23.4639L29.5093 23.6441L28.8174 23.3732L28.1558 23.5837L27.4337 23.343L26.7419 23.7343L26.0803 23.554L25.4489 23.915L24.6065 23.6144L23.975 24.0656L23.1629 23.5842L22.8799 23.7433C22.9212 24.9659 23.1009 27.7791 23.8905 28.9633C24.9131 30.4976 26.116 31.0389 27.0788 31.2796C28.0415 31.5202 28.613 32.6028 28.613 32.6028C28.613 32.6028 29.1845 31.4296 30.0868 31.1889C30.9891 30.9482 32.6437 30.2262 33.2147 28.6622C33.5923 27.6285 33.76 25.335 33.83 23.8974L33.54 24.0651L32.9081 23.7045Z" fill="url(#paint3_radial_395_2)"/>
<path opacity="0.6" d="M33.6437 23.069C33.6437 23.069 27.4272 22.8374 27.0783 22.8374L22.8794 23.0836V24.0247L23.1624 23.8656L23.9746 24.347L24.606 23.8958L25.4484 24.1964L26.0798 23.8354L26.7414 24.0156L27.4333 23.6244L28.1553 23.8651L28.8169 23.6546L29.5088 23.9255L30.1281 23.7453L30.832 24.1365L31.5838 23.8958L32.1855 24.347L32.9076 23.9859L33.539 24.347L33.829 24.1793C33.8295 24.1788 33.8844 23.0388 33.6437 23.069Z" fill="#914720"/>
<path d="M35.3141 19.7342L34.863 18.8319C34.863 18.8319 34.7124 18.2604 34.6223 17.9598C34.6223 17.9598 34.2915 17.5389 33.9909 17.4185C33.9909 17.4185 33.8207 16.8772 33.3947 16.5464C33.3947 16.5464 32.7879 16.3057 32.5473 16.3359C32.5473 16.3359 32.1661 15.915 31.8151 15.8848C31.8151 15.8848 31.3136 15.8848 31.0735 15.9749C31.0735 15.9749 30.4778 15.6743 30.1288 15.6743L29.3539 15.8249L28.9677 15.6743L28.1555 15.8249L27.4038 15.6743L26.5916 15.8249H25.7492L25.0271 16.1063L24.215 16.3062L23.7034 16.9079C23.7034 16.9079 22.8313 17.2388 22.6505 17.4492V17.9608C22.6505 17.9608 21.9889 18.1114 21.8081 18.5323C21.6279 18.9533 21.8081 19.4346 21.8081 19.4346C21.8081 19.4346 21.5075 20.0963 21.5372 20.3974C21.5674 20.698 21.7779 21.1491 21.7779 21.1491L21.718 22.0212L22.0186 22.6526L22.1691 23.4346L22.6807 23.8556L22.8791 23.7438L23.1621 23.5847L23.9743 24.066L24.6057 23.6149L25.4481 23.9155L26.0795 23.5545L26.7411 23.7347L27.433 23.3435L28.155 23.5842L28.8167 23.3737L29.5085 23.6446L30.1278 23.4643L30.8318 23.8556L31.5835 23.6149L32.1852 24.066L32.9073 23.705L33.5387 24.066L33.8287 23.8984L34.1102 23.7352L34.6515 23.2539C34.6515 23.2539 34.8922 22.9533 35.0427 22.6224V21.991C35.0427 21.991 35.2834 21.5998 35.3136 21.3596L35.0427 20.4271C35.0437 20.4261 35.2542 20.1557 35.3141 19.7342Z" fill="url(#paint4_radial_395_2)"/>
<path d="M24.7468 25.4953C24.9138 25.2367 24.8785 24.9168 24.668 24.7809C24.4575 24.645 24.1515 24.7444 23.9845 25.003C23.8175 25.2617 23.8528 25.5815 24.0633 25.7174C24.2738 25.8534 24.5798 25.7539 24.7468 25.4953Z" fill="#FFEDD8"/>
<path d="M24.5657 26.4254C24.6534 26.2896 24.6348 26.1217 24.5243 26.0504C24.4138 25.979 24.2532 26.0312 24.1655 26.167C24.0779 26.3027 24.0964 26.4706 24.2069 26.5419C24.3174 26.6133 24.4781 26.5611 24.5657 26.4254Z" fill="#FFEDD8"/>
<path d="M24.0473 18.7187C24.2417 18.7187 24.3992 18.5611 24.3992 18.3667C24.3992 18.1723 24.2417 18.0148 24.0473 18.0148C23.8529 18.0148 23.6953 18.1723 23.6953 18.3667C23.6953 18.5611 23.8529 18.7187 24.0473 18.7187Z" fill="#FEC662"/>
<path d="M24.7952 18.7585C24.9331 18.7585 25.0449 18.6467 25.0449 18.5088C25.0449 18.3708 24.9331 18.259 24.7952 18.259C24.6572 18.259 24.5454 18.3708 24.5454 18.5088C24.5454 18.6467 24.6572 18.7585 24.7952 18.7585Z" fill="#FEC662"/>
<path d="M30.6931 9.00978C30.7946 9.00978 30.8768 8.9275 30.8768 8.826C30.8768 8.7245 30.7946 8.64221 30.6931 8.64221C30.5916 8.64221 30.5093 8.7245 30.5093 8.826C30.5093 8.9275 30.5916 9.00978 30.6931 9.00978Z" fill="#D3E59F"/>
<path d="M30.2627 9.2701C30.3348 9.2701 30.3932 9.21172 30.3932 9.13969C30.3932 9.06767 30.3348 9.00928 30.2627 9.00928C30.1907 9.00928 30.1323 9.06767 30.1323 9.13969C30.1323 9.21172 30.1907 9.2701 30.2627 9.2701Z" fill="#D3E59F"/>
<path d="M23.0617 19.4321C23.1623 19.4321 23.2439 19.3504 23.2439 19.2498C23.2439 19.1491 23.1623 19.0675 23.0617 19.0675C22.961 19.0675 22.8794 19.1491 22.8794 19.2498C22.8794 19.3504 22.961 19.4321 23.0617 19.4321Z" fill="#FEC662"/>
<path d="M27.0784 18.914C27.1644 18.914 27.234 18.8443 27.234 18.7584C27.234 18.6724 27.1644 18.6028 27.0784 18.6028C26.9925 18.6028 26.9229 18.6724 26.9229 18.7584C26.9229 18.8443 26.9925 18.914 27.0784 18.914Z" fill="#FEC662"/>
<path d="M33.5803 18.6626C33.6373 18.6626 33.6835 18.6164 33.6835 18.5594C33.6835 18.5024 33.6373 18.4562 33.5803 18.4562C33.5233 18.4562 33.4771 18.5024 33.4771 18.5594C33.4771 18.6164 33.5233 18.6626 33.5803 18.6626Z" fill="#FBB263"/>
<path d="M34.0389 18.9728C34.0806 18.9728 34.1144 18.939 34.1144 18.8973C34.1144 18.8556 34.0806 18.8218 34.0389 18.8218C33.9972 18.8218 33.9634 18.8556 33.9634 18.8973C33.9634 18.939 33.9972 18.9728 34.0389 18.9728Z" fill="#FBB263"/>
<path d="M24.7975 12.1552C24.7265 12.1481 24.656 12.1406 24.585 12.136C24.5145 12.13 24.4435 12.1249 24.373 12.1219C24.2315 12.1149 24.09 12.1098 23.9485 12.1103C23.807 12.1088 23.6656 12.1134 23.5246 12.1209C23.4536 12.1234 23.3831 12.1295 23.3126 12.136C23.2416 12.1395 23.1716 12.1511 23.1001 12.1557C23.2386 12.1219 23.379 12.0962 23.521 12.0821C23.592 12.0721 23.663 12.0701 23.7345 12.0645C23.806 12.0625 23.877 12.0595 23.9485 12.06C24.091 12.061 24.234 12.0675 24.3755 12.0837C24.518 12.0993 24.6595 12.1204 24.7975 12.1552Z" fill="url(#paint5_linear_395_2)"/>
<path d="M23.7549 13.4331C23.8138 13.5333 23.8631 13.6385 23.9095 13.7453C23.9563 13.852 23.9961 13.9613 24.0323 14.0716C24.0671 14.1829 24.0978 14.2951 24.1199 14.4099C24.1411 14.5247 24.1562 14.6406 24.1567 14.7569C24.1441 14.7 24.1366 14.6426 24.122 14.5867C24.1114 14.5303 24.0958 14.4744 24.0822 14.4185C24.0515 14.3072 24.0202 14.197 23.9845 14.0872C23.9497 13.9774 23.9115 13.8687 23.8737 13.7594C23.8551 13.705 23.8349 13.6506 23.8148 13.5962C23.7957 13.5419 23.774 13.488 23.7549 13.4331Z" fill="url(#paint6_linear_395_2)"/>
<path d="M25.8504 11.3521C25.861 11.5001 25.864 11.6486 25.865 11.7972C25.8666 11.9457 25.8635 12.0937 25.8585 12.2423C25.852 12.3908 25.8444 12.5389 25.8308 12.6869C25.8172 12.8349 25.8006 12.9825 25.7744 13.129L25.8087 12.2408L25.8268 11.7967L25.8369 11.5746C25.8419 11.5006 25.8449 11.4266 25.8504 11.3521Z" fill="url(#paint7_linear_395_2)"/>
<path d="M29.0914 9.82483C28.7374 9.95524 28.389 10.0987 28.0436 10.2493C27.6977 10.3993 27.3563 10.5585 27.0199 10.7276C26.6836 10.8968 26.3517 11.0756 26.03 11.2709C25.8679 11.3661 25.7118 11.4714 25.5547 11.5746C25.4026 11.6843 25.247 11.7911 25.104 11.9119C24.8165 12.1526 24.5572 12.4265 24.318 12.7166C24.0783 13.0066 23.8593 13.3132 23.6498 13.6259C23.4404 13.9391 23.2445 14.2609 23.0542 14.5861L22.7692 15.0746C22.7218 15.1561 22.674 15.2372 22.6247 15.3178C22.6 15.358 22.5748 15.3978 22.5481 15.4371C22.5204 15.4749 22.4953 15.5156 22.4585 15.5459C22.4942 15.5151 22.5189 15.4739 22.5456 15.4351C22.5708 15.3953 22.5955 15.355 22.6191 15.3147C22.6665 15.2332 22.7128 15.1511 22.7581 15.0685L23.0325 14.5736C23.2188 14.2458 23.4112 13.9205 23.6171 13.6043C23.822 13.2871 24.0431 12.9804 24.2823 12.6874C24.5219 12.3948 24.7812 12.1174 25.0718 11.8732C25.2173 11.7513 25.3739 11.6451 25.5275 11.5348C25.6856 11.4316 25.8432 11.3263 26.0063 11.2317C26.3306 11.0378 26.6624 10.8571 27.0028 10.6934C27.3422 10.5277 27.6861 10.3727 28.034 10.2271C28.383 10.0836 28.7349 9.94769 29.0914 9.82483Z" fill="url(#paint8_linear_395_2)"/>
<path d="M30.5044 9.86328C30.7763 10.0239 31.0447 10.1911 31.3105 10.3618C31.5759 10.5335 31.8377 10.7102 32.097 10.8915C32.6147 11.2545 33.1192 11.6372 33.596 12.0536C33.8327 12.2636 34.0623 12.4831 34.2738 12.7188C34.381 12.8356 34.4797 12.9605 34.5739 13.0883C34.666 13.2178 34.7461 13.3572 34.8161 13.4982C34.9616 13.7792 35.0995 14.0642 35.2199 14.3567C35.2798 14.5032 35.3347 14.6518 35.3815 14.8028C35.4263 14.9539 35.4717 15.1075 35.4772 15.2661C35.4676 15.108 35.4188 14.9559 35.3699 14.8069C35.3191 14.6578 35.2612 14.5108 35.1972 14.3668C35.0724 14.0773 34.9309 13.7948 34.7818 13.5168C34.7088 13.3764 34.6298 13.2424 34.5381 13.114C34.4445 12.9881 34.3463 12.8653 34.2395 12.7495C34.0286 12.5163 33.7989 12.2993 33.5623 12.0914C33.09 11.6734 32.586 11.2918 32.0744 10.9227C31.8181 10.7384 31.5588 10.5581 31.2964 10.3824C31.0356 10.2052 30.7723 10.031 30.5044 9.86328Z" fill="url(#paint9_linear_395_2)"/>
<path d="M32.1948 10.9839C32.2084 11.1531 32.2114 11.3223 32.2109 11.4919C32.2109 11.6616 32.2039 11.8308 32.1913 12C32.1777 12.1692 32.1606 12.3379 32.1299 12.505C32.0997 12.6722 32.0629 12.8389 32.0015 12.997C32.0105 12.9557 32.0201 12.9144 32.0302 12.8736C32.0392 12.8323 32.0458 12.7905 32.0533 12.7492C32.0624 12.708 32.0674 12.6662 32.074 12.6244C32.0805 12.5826 32.0871 12.5413 32.0911 12.499C32.1127 12.3318 32.1278 12.1636 32.1404 11.996C32.154 11.8278 32.1626 11.6591 32.1717 11.4904L32.1948 10.9839Z" fill="url(#paint10_linear_395_2)"/>
<path d="M31.9253 10.7933C32.0638 10.7026 32.2073 10.6195 32.3528 10.54C32.4978 10.4599 32.6458 10.3854 32.7964 10.3154C32.9474 10.2469 33.1005 10.1815 33.2591 10.1306C33.3382 10.1049 33.4187 10.0828 33.5008 10.0677C33.5819 10.0556 33.6705 10.043 33.748 10.0762C33.6675 10.0546 33.5844 10.0722 33.5059 10.0918C33.4263 10.1115 33.3482 10.1377 33.2717 10.1674C33.1181 10.2263 32.9671 10.2917 32.8175 10.3612C32.6675 10.4297 32.5195 10.5022 32.3709 10.5742L31.9253 10.7933Z" fill="url(#paint11_linear_395_2)"/>
<path d="M33.3442 11.8703C33.526 11.7999 33.7128 11.7425 33.9011 11.6901C34.0895 11.6387 34.2803 11.5969 34.4731 11.5622C34.5698 11.5461 34.6665 11.5335 34.7642 11.5234C34.8614 11.5133 34.9595 11.5058 35.0577 11.5068C35.1559 11.5073 35.2541 11.5118 35.3513 11.5269C35.448 11.5441 35.5446 11.5687 35.6302 11.6161C35.5396 11.5793 35.4439 11.5602 35.3478 11.5516C35.2516 11.5415 35.1549 11.5415 35.0582 11.5461C34.8649 11.5541 34.6725 11.5783 34.4817 11.6125C34.2899 11.6428 34.1005 11.6851 33.9112 11.7284C33.8165 11.75 33.7219 11.7732 33.6277 11.7973C33.5326 11.8195 33.4389 11.8452 33.3442 11.8703Z" fill="url(#paint12_linear_395_2)"/>
<path d="M34.3066 12.7891C34.282 12.9482 34.2452 13.1048 34.2049 13.2609C34.1647 13.417 34.1158 13.5705 34.0609 13.7221C34.0055 13.8731 33.9426 14.0227 33.8651 14.1647C33.7875 14.3057 33.7009 14.4462 33.5806 14.5544C33.6052 14.5222 33.6294 14.4905 33.6546 14.4598L33.719 14.3585C33.7593 14.2896 33.7986 14.2201 33.8313 14.1476C33.8998 14.0036 33.9602 13.8555 34.0141 13.7055C34.0695 13.5554 34.1198 13.4039 34.1687 13.2513C34.1934 13.1753 34.2165 13.0982 34.2392 13.0212C34.2623 12.9431 34.284 12.8661 34.3066 12.7891Z" fill="url(#paint13_linear_395_2)"/>
<path d="M34.7271 13.3706C34.863 13.3595 34.9995 13.358 35.1359 13.36C35.2724 13.3615 35.4088 13.3706 35.5448 13.3832C35.6807 13.3973 35.8162 13.4169 35.9501 13.4481C36.0825 13.4793 36.218 13.5201 36.3303 13.5997C36.2985 13.5866 36.2688 13.5705 36.2371 13.5589C36.2049 13.5488 36.1732 13.5373 36.1404 13.5292L36.0423 13.5045L35.9426 13.4859C35.8091 13.4642 35.6752 13.4461 35.5402 13.433C35.4053 13.4194 35.2704 13.4094 35.1349 13.3983L34.7271 13.3706Z" fill="url(#paint14_linear_395_2)"/>
<path d="M31.2926 10.4271C31.2583 10.5872 31.219 10.7459 31.1803 10.9045C31.1415 11.0631 31.0997 11.2207 31.0594 11.3788L30.934 11.8521C30.9124 11.9306 30.8923 12.0097 30.8731 12.0888C30.8535 12.1678 30.8318 12.2469 30.8223 12.3279C30.8263 12.1638 30.8641 12.0032 30.8963 11.843C30.93 11.6829 30.9698 11.5243 31.0106 11.3662C31.0524 11.2081 31.0957 11.0505 31.143 10.8944C31.1898 10.7373 31.2382 10.5812 31.2926 10.4271Z" fill="url(#paint15_linear_395_2)"/>
<path d="M24.7974 10.0607C24.9439 10.1161 25.0874 10.179 25.2299 10.244C25.3724 10.3084 25.5129 10.3779 25.6518 10.4504C25.7903 10.5239 25.9278 10.5994 26.0597 10.6845C26.1257 10.7273 26.1911 10.7711 26.2536 10.8185C26.3145 10.8673 26.3774 10.9177 26.4207 10.9841C26.3689 10.9257 26.3044 10.8809 26.239 10.8386C26.174 10.7958 26.107 10.756 26.0396 10.7178C25.9041 10.6412 25.7666 10.5672 25.6287 10.4947L25.2133 10.2782L25.0053 10.1704L24.7974 10.0607Z" fill="url(#paint16_linear_395_2)"/>
<path d="M22.0195 14.3628C22.0784 14.3548 22.1369 14.3477 22.1948 14.3381C22.2532 14.3301 22.3116 14.3215 22.3695 14.3109C22.4853 14.2903 22.6011 14.2702 22.7149 14.2435C22.8292 14.2173 22.942 14.1871 23.0538 14.1513C23.1087 14.1317 23.165 14.1141 23.2179 14.0894C23.2733 14.0693 23.3247 14.0406 23.3785 14.0154C23.2839 14.0874 23.1771 14.1418 23.0669 14.1876C22.9566 14.2329 22.8413 14.2651 22.726 14.2928C22.6097 14.3185 22.4923 14.3381 22.3745 14.3492C22.2567 14.3608 22.1379 14.3678 22.0195 14.3628Z" fill="url(#paint17_linear_395_2)"/>
<path d="M27.4639 10.5222C27.475 10.7 27.468 10.8777 27.4539 11.0544C27.4453 11.1431 27.4357 11.2312 27.4201 11.3188C27.4045 11.4064 27.3864 11.495 27.3491 11.5766C27.3672 11.4895 27.3718 11.4014 27.3808 11.3138L27.403 11.0499C27.4191 10.8742 27.4352 10.6979 27.4639 10.5222Z" fill="url(#paint18_linear_395_2)"/>
<rect x="27" y="35" width="4" height="17" fill="#FB538B"/>
<defs>
<linearGradient id="paint0_linear_395_2" x1="26.6939" y1="9.65034" x2="21.799" y2="16.0307" gradientUnits="userSpaceOnUse">
<stop offset="0.00721658" stop-color="#68B545"/>
<stop offset="1" stop-color="#B4D034"/>
</linearGradient>
<linearGradient id="paint1_linear_395_2" x1="31.8876" y1="10.8754" x2="36.8544" y2="15.3092" gradientUnits="userSpaceOnUse">
<stop offset="0.00721658" stop-color="#68B545"/>
<stop offset="1" stop-color="#B4D034"/>
</linearGradient>
<linearGradient id="paint2_linear_395_2" x1="27.9207" y1="14.6728" x2="31.9843" y2="8.22493" gradientUnits="userSpaceOnUse">
<stop stop-color="#3F833E"/>
<stop offset="0.4262" stop-color="#68B545"/>
<stop offset="1" stop-color="#B4D034"/>
</linearGradient>
<radialGradient id="paint3_radial_395_2" cx="0" cy="0" r="1" gradientUnits="userSpaceOnUse" gradientTransform="translate(25.3035 26.0809) scale(7.78491)">
<stop offset="0.0463" stop-color="#FFDDAB"/>
<stop offset="0.2057" stop-color="#F0A268"/>
<stop offset="0.237" stop-color="#F19B59"/>
<stop offset="0.2856" stop-color="#F19344"/>
<stop offset="0.3397" stop-color="#F18D34"/>
<stop offset="0.4014" stop-color="#F18928"/>
<stop offset="0.4775" stop-color="#F18723"/>
<stop offset="0.6101" stop-color="#F18621"/>
<stop offset="1" stop-color="#F05724"/>
</radialGradient>
<radialGradient id="paint4_radial_395_2" cx="0" cy="0" r="1" gradientUnits="userSpaceOnUse" gradientTransform="translate(28.4254 19.8691) scale(7.05986 5.03297)">
<stop offset="0.00721658" stop-color="#FFC82F"/>
<stop offset="0.3691" stop-color="#D48E32"/>
<stop offset="0.8806" stop-color="#90402A"/>
</radialGradient>
<linearGradient id="paint5_linear_395_2" x1="23.698" y1="12.5537" x2="24.2028" y2="11.7528" gradientUnits="userSpaceOnUse">
<stop stop-color="#3F833E"/>
<stop offset="0.4262" stop-color="#68B545"/>
<stop offset="1" stop-color="#B4D034"/>
</linearGradient>
<linearGradient id="paint6_linear_395_2" x1="23.7059" y1="14.4913" x2="24.2083" y2="13.694" gradientUnits="userSpaceOnUse">
<stop stop-color="#3F833E"/>
<stop offset="0.4262" stop-color="#68B545"/>
<stop offset="1" stop-color="#B4D034"/>
</linearGradient>
<linearGradient id="paint7_linear_395_2" x1="25.3952" y1="12.9028" x2="26.2312" y2="11.5762" gradientUnits="userSpaceOnUse">
<stop stop-color="#3F833E"/>
<stop offset="0.4262" stop-color="#68B545"/>
<stop offset="1" stop-color="#B4D034"/>
</linearGradient>
<linearGradient id="paint8_linear_395_2" x1="23.5132" y1="16.2213" x2="27.9925" y2="9.1139" gradientUnits="userSpaceOnUse">
<stop stop-color="#3F833E"/>
<stop offset="0.4262" stop-color="#68B545"/>
<stop offset="1" stop-color="#B4D034"/>
</linearGradient>
<linearGradient id="paint9_linear_395_2" x1="32.473" y1="13.3869" x2="33.5176" y2="11.7295" gradientUnits="userSpaceOnUse">
<stop stop-color="#3F833E"/>
<stop offset="0.4262" stop-color="#68B545"/>
<stop offset="1" stop-color="#B4D034"/>
</linearGradient>
<linearGradient id="paint10_linear_395_2" x1="31.6132" y1="12.7597" x2="32.587" y2="11.2145" gradientUnits="userSpaceOnUse">
<stop stop-color="#3F833E"/>
<stop offset="0.4262" stop-color="#68B545"/>
<stop offset="1" stop-color="#B4D034"/>
</linearGradient>
<linearGradient id="paint11_linear_395_2" x1="32.4094" y1="11.1126" x2="33.2706" y2="9.74599" gradientUnits="userSpaceOnUse">
<stop stop-color="#3F833E"/>
<stop offset="0.4262" stop-color="#68B545"/>
<stop offset="1" stop-color="#B4D034"/>
</linearGradient>
<linearGradient id="paint12_linear_395_2" x1="34.0964" y1="12.3629" x2="34.8829" y2="11.1149" gradientUnits="userSpaceOnUse">
<stop stop-color="#3F833E"/>
<stop offset="0.4262" stop-color="#68B545"/>
<stop offset="1" stop-color="#B4D034"/>
</linearGradient>
<linearGradient id="paint13_linear_395_2" x1="33.4557" y1="14.4816" x2="34.4657" y2="12.8789" gradientUnits="userSpaceOnUse">
<stop stop-color="#3F833E"/>
<stop offset="0.4262" stop-color="#68B545"/>
<stop offset="1" stop-color="#B4D034"/>
</linearGradient>
<linearGradient id="paint14_linear_395_2" x1="35.3409" y1="13.7824" x2="35.718" y2="13.1841" gradientUnits="userSpaceOnUse">
<stop stop-color="#3F833E"/>
<stop offset="0.4262" stop-color="#68B545"/>
<stop offset="1" stop-color="#B4D034"/>
</linearGradient>
<linearGradient id="paint15_linear_395_2" x1="30.5544" y1="12.1749" x2="31.5564" y2="10.585" gradientUnits="userSpaceOnUse">
<stop stop-color="#3F833E"/>
<stop offset="0.4262" stop-color="#68B545"/>
<stop offset="1" stop-color="#B4D034"/>
</linearGradient>
<linearGradient id="paint16_linear_395_2" x1="25.5732" y1="10.5791" x2="25.6675" y2="10.4296" gradientUnits="userSpaceOnUse">
<stop stop-color="#3F833E"/>
<stop offset="0.4262" stop-color="#68B545"/>
<stop offset="1" stop-color="#B4D034"/>
</linearGradient>
<linearGradient id="paint17_linear_395_2" x1="22.4164" y1="14.6378" x2="22.9763" y2="13.7494" gradientUnits="userSpaceOnUse">
<stop stop-color="#3F833E"/>
<stop offset="0.4262" stop-color="#68B545"/>
<stop offset="1" stop-color="#B4D034"/>
</linearGradient>
<linearGradient id="paint18_linear_395_2" x1="27.1495" y1="11.4572" x2="27.6672" y2="10.6357" gradientUnits="userSpaceOnUse">
<stop stop-color="#3F833E"/>
<stop offset="0.4262" stop-color="#68B545"/>
<stop offset="1" stop-color="#B4D034"/>
</linearGradient>
</defs>
</svg>
